<?xml version="1.0" encoding="UTF-8" standalone="no"?>
<svg
   xmlns:dc="http://purl.org/dc/elements/1.1/"
   xmlns:cc="http://creativecommons.org/ns#"
   xmlns:rdf="http://www.w3.org/1999/02/22-rdf-syntax-ns#"
   xmlns:svg="http://www.w3.org/2000/svg"
   xmlns="http://www.w3.org/2000/svg"
   xmlns:xlink="http://www.w3.org/1999/xlink"
   xmlns:sodipodi="http://sodipodi.sourceforge.net/DTD/sodipodi-0.dtd"
   xmlns:inkscape="http://www.inkscape.org/namespaces/inkscape"
   id="ant"
   viewBox="0 0 32 32"
   version="1.0"
   inkscape:version="0.48.5 r10040"
   width="32"
   height="32"
   sodipodi:docname="ant-1.svg"
   inkscape:export-filename="C:\Users\fuchsto\Workspaces\dnants.git\res\ant-4_32.bmp.png"
   inkscape:export-xdpi="92.530121"
   inkscape:export-ydpi="92.530121">
  <sodipodi:namedview
     pagecolor="#ffffff"
     bordercolor="#666666"
     borderopacity="1"
     objecttolerance="10"
     gridtolerance="10"
     guidetolerance="10"
     inkscape:pageopacity="0"
     inkscape:pageshadow="2"
     inkscape:window-width="1166"
     inkscape:window-height="907"
     id="namedview18"
     showgrid="false"
     showguides="true"
     inkscape:guide-bbox="true"
     inkscape:zoom="14.75"
     inkscape:cx="-5.7630662"
     inkscape:cy="8.6053301"
     inkscape:window-x="0"
     inkscape:window-y="0"
     inkscape:window-maximized="0"
     inkscape:current-layer="ant"
     fit-margin-top="0"
     fit-margin-left="0"
     fit-margin-right="0"
     fit-margin-bottom="0" />
  <defs
     id="defs3">
    <linearGradient
       id="WhiteTransparent">
      <stop
         style="stop-color:white"
         offset="0"
         id="stop6" />
      <stop
         style="stop-color:white;stop-opacity:0"
         offset="1"
         id="stop8" />
    </linearGradient>
    <linearGradient
       id="linearGradient3153"
       y2="472.51999"
       xlink:href="#WhiteTransparent"
       gradientUnits="userSpaceOnUse"
       x2="680.06"
       gradientTransform="matrix(0.63377,2.3652,-2.3652,0.63377,761.18,-1845.5)"
       y1="471.38"
       x1="682.03998" />
    <linearGradient
       id="linearGradient3156"
       y2="474.35001"
       xlink:href="#WhiteTransparent"
       gradientUnits="userSpaceOnUse"
       x2="676.89001"
       gradientTransform="matrix(-2.3652,-0.63377,-0.63377,2.3652,1976,-632.1)"
       y1="471.57001"
       x1="681.71997" />
  </defs>
  <path
     inkscape:connector-curvature="0"
     d="m 8.993807,13.415782 c 0.253035,0.333523 1.462667,0.849028 3.614497,1.176896 0.0083,0.512529 0.03908,0.996795 0.09669,1.456565 -2.7601881,-0.885375 -4.3024598,0.532524 -3.015851,0.663274 0.370295,0.06407 3.219513,0.823439 3.240085,0.827207 0.21395,0.900695 0.524586,1.392497 0.892823,1.993589 -2.795222,-0.754853 -6.0486896,3.330761 -4.069192,3.139245 0.415554,-0.437158 2.624983,-1.062746 3.550723,-1.69587 -3.044977,3.026716 1.06169,3.515088 2.834862,3.414287 l 0.01242,0 0.01243,0 0.01242,0 c 2.619879,0.786375 5.037612,-1.843144 3.001452,-3.295628 1.005969,0.589786 2.97882,1.168265 3.369689,1.579044 1.807925,1.118976 -1.463026,-3.117 -4.075307,-3.133591 0.368237,-0.601092 0.676816,-1.106086 0.892822,-2.008664 5.725878,-0.977376 3.080859,-1.55275 0.218063,-1.484829 0.0576,-0.456002 0.100799,-0.940267 0.109024,-1.452796 2.151828,-0.331637 1.939789,-0.09949 2.188709,-0.433017 2.063233,-0.803305 3.969517,-2.984322 -0.624115,-1.312918 -0.343553,0.122484 0.144938,-0.486966 -1.692141,0.521141 -0.281834,-0.985489 -0.991569,-1.654417 -1.859706,-2.008665 1.199347,-0.0019 2.071599,-0.216694 2.071599,-1.426415 0,-1.322778 -0.277722,-0.541922 -0.744707,-1.519874 C 19.618503,8.6887804 21.294479,5.8390739 18.516797,7.555524 17.88318,6.677438 17.06853,6.149835 16.169536,6.136646 c -0.002,-0.0019 -0.0042,-0.0075 -0.0062,-0.0056 -0.0083,0 -0.01844,-0.0019 -0.02675,-0.0019 -0.901051,0.0113 -1.732159,0.546447 -2.363718,1.426417 -0.501714,-0.8000677 -3.556104,-0.6138365 -0.501971,0.859238 -0.46904,0.976068 -0.746762,0.19898 -0.746762,1.521758 0,1.205952 0.872252,1.424531 2.069539,1.424531 -0.866079,0.356132 -1.575812,1.02506 -1.857648,2.00678 C 10.898949,12.359769 10.062495,12.402363 9.721,12.278 8.842294,11.771753 6.9587317,11.769478 8.993807,13.415782 z"
     style="fill:#999999;fill-opacity:1;stroke:#585858;stroke-width:0.20000000000000001;stroke-miterlimit:4;stroke-opacity:1;stroke-dasharray:none"
     id="ant-shape"
     inkscape:export-filename="C:\Users\fuchsto\Workspaces\dnants.git\res\ant-4_64.png"
     inkscape:export-xdpi="92.511139"
     inkscape:export-ydpi="92.511139"
     sodipodi:nodetypes="ccccccccccccccccccccccscccccccscccc" />
  <path
     inkscape:connector-curvature="0"
     d="m 12.345418,23.405981 c -0.002,-1.972862 0.417611,-2.423942 2.991165,-2.422058 0.333266,0 0.548835,0.544865 0.548835,1.01594 0.507497,2.846907 -1.575596,2.95656 -3.540493,1.606156 z M 12.958027,9.422158 c 0.133721,-1.4565631 0.386752,-0.2272411 0.952482,-1.4086981 0.522527,-1.089126 0.901052,-1.454681 1.612842,-1.458449 0.660361,0.0019 0.382639,-0.658378 0.380582,1.683808 0.0041,1.066513 0.226292,2.2310111 -0.88048,2.2272411 -1.102659,0 -2.153887,-0.03957 -2.065426,-1.043902 z m 0.0432,5.504041 c -0.07405,-0.987373 0.09257,-2.08592 0.794078,-2.728466 0.421724,-0.39005 0.833165,-0.759374 1.396836,-0.763142 0.958655,0.0037 0.682991,1.997359 0.680933,3.054451 -0.0042,1.085357 0.09052,3.870353 -0.117269,4.682486 -0.209835,0.81025 -1.676617,0.194082 -2.063369,-0.668926 -0.39704,-0.891275 -0.695333,-2.340301 -0.691209,-3.576403 z"
     style="opacity:0.40000000000000002;fill:#e6e6e6;fill-opacity:1;stroke:#585858;stroke-width:0.20000000000000001;stroke-miterlimit:4;stroke-opacity:1;stroke-dasharray:none"
     id="ant-specularity"
     inkscape:export-filename="C:\Users\fuchsto\Workspaces\dnants.git\res\ant-4_64.png"
     inkscape:export-xdpi="92.511139"
     inkscape:export-ydpi="92.511139"
     sodipodi:nodetypes="cccccccccccccccccc" />
  <path
     inkscape:connector-curvature="0"
     d="m 16.92668,21.034655 c -1.236375,0.936497 -0.653474,1.198772 -0.649361,2.60069 3.318279,1.493131 3.433477,-2.561945 0.649361,-2.60069 z M 19.302424,9.87816 c -0.125495,-1.4565651 -0.384697,-0.2253591 -0.94837,-1.4087001 -0.530756,-1.089126 -0.901051,-1.458447 -1.614899,-1.456563 -0.730305,0.910116 -1.156145,3.4946181 0.4999,3.9072811 1.104714,-0.0019 2.14977,-0.03956 2.063369,-1.042018 z m -0.0432,5.500271 c 0.07612,-0.981721 -0.09052,-2.087804 -0.789964,-2.728467 -0.425841,-0.386281 -0.83728,-0.759371 -1.392723,-0.759371 -1.479124,1.475407 -0.833165,5.760305 -0.571901,7.736935 0.211891,0.804597 1.68073,0.186542 2.061312,-0.674578 0.397039,-0.887505 0.699446,-2.336533 0.693276,-3.574519 z"
     style="opacity:0.40000000000000002;fill:#e6e6e6;fill-opacity:1;stroke:#585858;stroke-width:0.20000000000000001;stroke-miterlimit:4;stroke-opacity:1;stroke-dasharray:none"
     id="ant-gloss"
     inkscape:export-filename="C:\Users\fuchsto\Workspaces\dnants.git\res\ant-4_64.png"
     inkscape:export-xdpi="92.511139"
     inkscape:export-ydpi="92.511139"
     sodipodi:nodetypes="cccccccccccccc" />
  <metadata
     id="metadata16">
    <rdf:RDF>
      <cc:Work>
        <dc:format>image/svg+xml</dc:format>
        <dc:type
           rdf:resource="http://purl.org/dc/dcmitype/StillImage" />
        <cc:license
           rdf:resource="http://creativecommons.org/licenses/publicdomain/" />
        <dc:publisher>
          <cc:Agent
             rdf:about="http://openclipart.org/">
            <dc:title>Openclipart</dc:title>
          </cc:Agent>
        </dc:publisher>
        <dc:title />
        <dc:date>2006-08-29T16:35:08</dc:date>
        <dc:description>Balanced ant design with specularity</dc:description>
        <dc:source>https://openclipart.org/detail/66/ant-by-andy</dc:source>
        <dc:creator>
          <cc:Agent>
            <dc:title>Andy</dc:title>
          </cc:Agent>
        </dc:creator>
        <dc:subject>
          <rdf:Bag>
            <rdf:li>animal</rdf:li>
            <rdf:li>ant</rdf:li>
            <rdf:li>black</rdf:li>
            <rdf:li>black &amp; white</rdf:li>
            <rdf:li>bug</rdf:li>
            <rdf:li>creature</rdf:li>
            <rdf:li>creepy</rdf:li>
            <rdf:li>glossy</rdf:li>
            <rdf:li>icon</rdf:li>
            <rdf:li>insect</rdf:li>
            <rdf:li>logo</rdf:li>
            <rdf:li>shiny</rdf:li>
            <rdf:li>spooky</rdf:li>
          </rdf:Bag>
        </dc:subject>
      </cc:Work>
      <cc:License
         rdf:about="http://creativecommons.org/licenses/publicdomain/">
        <cc:permits
           rdf:resource="http://creativecommons.org/ns#Reproduction" />
        <cc:permits
           rdf:resource="http://creativecommons.org/ns#Distribution" />
        <cc:permits
           rdf:resource="http://creativecommons.org/ns#DerivativeWorks" />
      </cc:License>
    </rdf:RDF>
  </metadata>
</svg>
