<?xml version="1.0" encoding="UTF-8" standalone="no"?>
<!-- Created with Inkscape (http://www.inkscape.org/) -->

<svg
   xmlns:dc="http://purl.org/dc/elements/1.1/"
   xmlns:cc="http://creativecommons.org/ns#"
   xmlns:rdf="http://www.w3.org/1999/02/22-rdf-syntax-ns#"
   xmlns:svg="http://www.w3.org/2000/svg"
   xmlns="http://www.w3.org/2000/svg"
   xmlns:sodipodi="http://sodipodi.sourceforge.net/DTD/sodipodi-0.dtd"
   xmlns:inkscape="http://www.inkscape.org/namespaces/inkscape"
   id="svg2"
   xml:space="preserve"
   viewBox="0 0 67.704 61.238"
   version="1.1"
   inkscape:version="0.48.5 r10040"
   width="32"
   height="32"
   sodipodi:docname="num_3.svg"><defs
   id="defs33">
    
  
      
      
      
      
      
      
      
      
      
      
      
      
      
      
      
      
      
      
      
      
      
      
      
      
    </defs><sodipodi:namedview
   pagecolor="#ffffff"
   bordercolor="#666666"
   borderopacity="1"
   objecttolerance="10"
   gridtolerance="10"
   guidetolerance="10"
   inkscape:pageopacity="0"
   inkscape:pageshadow="2"
   inkscape:window-width="1920"
   inkscape:window-height="1057"
   id="namedview31"
   showgrid="false"
   inkscape:zoom="16"
   inkscape:cx="7.5589442"
   inkscape:cy="8.6940928"
   inkscape:window-x="-8"
   inkscape:window-y="-8"
   inkscape:window-maximized="1"
   inkscape:current-layer="text2993" />
  
<metadata
   id="metadata29"><rdf:RDF><cc:Work><dc:format>image/svg+xml</dc:format><dc:type
         rdf:resource="http://purl.org/dc/dcmitype/StillImage" /><cc:license
         rdf:resource="http://creativecommons.org/licenses/publicdomain/" /><dc:publisher><cc:Agent
           rdf:about="http://openclipart.org/"><dc:title>Openclipart</dc:title></cc:Agent></dc:publisher><dc:title /></cc:Work><cc:License
       rdf:about="http://creativecommons.org/licenses/publicdomain/"><cc:permits
         rdf:resource="http://creativecommons.org/ns#Reproduction" /><cc:permits
         rdf:resource="http://creativecommons.org/ns#Distribution" /><cc:permits
         rdf:resource="http://creativecommons.org/ns#DerivativeWorks" /></cc:License></rdf:RDF></metadata><g
   style="font-size:84.62999725px;font-style:normal;font-variant:normal;font-weight:bold;font-stretch:normal;text-align:center;line-height:125%;letter-spacing:0px;word-spacing:0px;text-anchor:middle;fill:#000000;fill-opacity:1;stroke:none;font-family:Poplar Std;-inkscape-font-specification:Poplar Std Bold"
   id="text2993"><path
     d="m 27.15902,34.845172 c -0.05996,0.446092 0.165719,0.717609 0.677031,0.814552 0.511286,0.097 1.66788,0.135785 3.469785,0.116366 1.622037,-0.07226 2.609373,0.41083 2.962012,1.449271 0.3526,1.038492 0.493648,3.066057 0.423145,6.082702 -0.01412,0.55187 -0.155173,0.971487 -0.423145,1.258855 -0.268012,0.287402 -0.578318,0.431977 -0.930918,0.433723 -0.64884,0.08112 -1.043774,-0.208028 -1.184805,-0.867447 -0.141065,-0.659383 -0.197485,-2.175649 -0.169257,-4.548803 0.01409,-0.437227 -0.18338,-0.662904 -0.592403,-0.677031 l -15.233203,0.592402 c -0.24331,-0.05463 -0.391412,0.181621 -0.444304,0.708767 -0.0529,0.52719 -0.07405,1.673205 -0.06347,3.43805 0.08639,5.518522 1.733126,9.989744 4.940212,13.41368 3.207074,3.423947 7.456147,5.187048 12.74723,5.289308 5.368623,-0.109312 9.652956,-1.900623 12.853015,-5.373936 3.199995,-3.473304 4.839678,-7.972736 4.919056,-13.49831 -0.126981,-3.656652 -1.015584,-6.583399 -2.665812,-8.78025 -1.650296,-2.196796 -3.300558,-3.557909 -4.95079,-4.083344 -0.34207,-0.125148 -0.610062,-0.234461 -0.803976,-0.327938 -0.19397,-0.09341 -0.292703,-0.181567 -0.2962,-0.264464 0.007,-0.08107 0.09871,-0.172755 0.275044,-0.275047 0.176282,-0.102227 0.394907,-0.236222 0.655874,-0.401985 1.703126,-0.819809 3.289916,-2.353707 4.760375,-4.601698 1.470392,-2.247916 2.253209,-5.114717 2.348453,-8.600411 C 50.349067,11.015135 48.75875,7.0093708 45.661014,4.1248789 42.563216,1.2405035 38.455192,-0.22639609 33.33693,-0.27582427 27.771781,-0.14725046 23.781688,1.1002407 21.36664,3.466653 c -2.415063,2.36653 -3.885097,5.0809208 -4.410107,8.14318 -0.525016,3.062362 -0.73502,5.701528 -0.630013,7.917507 -0.0035,0.213378 0.04584,0.379109 0.148102,0.497194 0.102258,0.11817 0.278568,0.178116 0.528929,0.179837 l 14.048399,0.592403 c 0.297947,-0.0088 0.52715,-0.09693 0.687609,-0.264467 0.160424,-0.167454 0.241527,-0.361395 0.243309,-0.581822 -0.02823,-1.842398 0.02819,-3.023676 0.169257,-3.543836 0.141031,-0.520069 0.535965,-0.749272 1.184805,-0.68761 0.648802,-0.08106 1.043737,0.208093 1.184805,0.867447 0.141028,0.659445 0.197447,2.175712 0.169258,4.548803 -0.01412,0.694702 -0.32443,1.272999 -0.930918,1.734892 -0.606527,0.461972 -1.424606,0.701754 -2.454239,0.719347 -1.801904,-0.02641 -2.958498,0.02649 -3.469785,0.15868 -0.511314,0.13227 -0.736991,0.502521 -0.677031,1.110753 l 0,9.986211 z"
     style="font-family:Poplar Std;-inkscape-font-specification:Poplar Std Bold;fill:#666666"
     id="path2984" /></g>
</svg>