<?xml version="1.0" encoding="UTF-8" standalone="no"?>
<!-- Created with Inkscape (http://www.inkscape.org/) -->

<svg
   xmlns:dc="http://purl.org/dc/elements/1.1/"
   xmlns:cc="http://creativecommons.org/ns#"
   xmlns:rdf="http://www.w3.org/1999/02/22-rdf-syntax-ns#"
   xmlns:svg="http://www.w3.org/2000/svg"
   xmlns="http://www.w3.org/2000/svg"
   xmlns:sodipodi="http://sodipodi.sourceforge.net/DTD/sodipodi-0.dtd"
   xmlns:inkscape="http://www.inkscape.org/namespaces/inkscape"
   id="svg2"
   xml:space="preserve"
   viewBox="0 0 67.704 61.238"
   version="1.1"
   inkscape:version="0.48.5 r10040"
   width="32"
   height="32"
   sodipodi:docname="num_9.svg"><defs
   id="defs33">
    
  
      
      
      
      
      
      
      
      
      
      
      
      
      
      
      
      
      
      
      
      
      
      
      
      
    </defs><sodipodi:namedview
   pagecolor="#ffffff"
   bordercolor="#666666"
   borderopacity="1"
   objecttolerance="10"
   gridtolerance="10"
   guidetolerance="10"
   inkscape:pageopacity="0"
   inkscape:pageshadow="2"
   inkscape:window-width="1920"
   inkscape:window-height="1057"
   id="namedview31"
   showgrid="false"
   inkscape:zoom="14.113845"
   inkscape:cx="21.68616"
   inkscape:cy="15.764836"
   inkscape:window-x="-8"
   inkscape:window-y="-8"
   inkscape:window-maximized="1"
   inkscape:current-layer="svg2" />
  
<metadata
   id="metadata29"><rdf:RDF><cc:Work><dc:format>image/svg+xml</dc:format><dc:type
         rdf:resource="http://purl.org/dc/dcmitype/StillImage" /><cc:license
         rdf:resource="http://creativecommons.org/licenses/publicdomain/" /><dc:publisher><cc:Agent
           rdf:about="http://openclipart.org/"><dc:title>Openclipart</dc:title></cc:Agent></dc:publisher><dc:title /></cc:Work><cc:License
       rdf:about="http://creativecommons.org/licenses/publicdomain/"><cc:permits
         rdf:resource="http://creativecommons.org/ns#Reproduction" /><cc:permits
         rdf:resource="http://creativecommons.org/ns#Distribution" /><cc:permits
         rdf:resource="http://creativecommons.org/ns#DerivativeWorks" /></cc:License></rdf:RDF></metadata><g
   style="font-size:33.85200119000000300px;font-style:normal;font-variant:normal;font-weight:normal;font-stretch:normal;text-align:center;line-height:125%;letter-spacing:0px;word-spacing:0px;text-anchor:middle;fill:#666666;fill-opacity:1;stroke:none;font-family:Consolas;-inkscape-font-specification:Consolas"
   id="text2993"><path
     d="M 51.453464,24.012672 C 51.483398,17.187748 49.984762,11.478828 46.957551,6.8858952 43.930274,2.2930736 39.194587,-0.09416387 32.750475,-0.27582427 27.866668,-0.18936898 23.73396,1.5208391 20.352339,4.8548052 c -3.381634,3.334081 -5.144734,7.7735678 -5.289306,13.3184728 0.07405,5.102457 1.153068,9.009487 3.237056,11.721102 2.08398,2.71168 4.728631,4.079846 7.93396,4.104503 1.625567,-0.02994 2.923209,-0.308513 3.89293,-0.835709 0.969689,-0.527139 1.759558,-1.123067 2.369609,-1.787787 0.248579,-0.250331 0.449572,-0.426642 0.602981,-0.528933 0.153371,-0.102228 0.290893,-0.151594 0.412566,-0.148098 0.132213,0.0036 0.248578,0.102291 0.349094,0.2962 0.100477,0.193972 0.15337,0.461963 0.15868,0.803976 l 0,14.133027 c -0.0035,0.548339 -0.123437,0.953852 -0.359674,1.216539 -0.236276,0.262717 -0.567739,0.393188 -0.994389,0.391411 -0.262722,0.0018 -0.498978,-0.08638 -0.708769,-0.264468 -0.209826,-0.178058 -0.340295,-0.456627 -0.391407,-0.835708 l -0.253886,-4.146817 c -0.0071,-0.216842 -0.07759,-0.396679 -0.211574,-0.539511 -0.134014,-0.14279 -0.289166,-0.21684 -0.465458,-0.222149 l -14.640801,0.592402 c -0.172785,0.0053 -0.313833,0.07936 -0.423144,0.222153 -0.109314,0.142832 -0.165733,0.322668 -0.169258,0.539508 0.09344,6.216711 1.810703,11.005292 5.151785,14.365757 3.34107,3.360475 7.745294,5.060104 13.212688,5.098891 5.03187,-0.08287 9.206892,-2.032856 12.525078,-5.849975 3.318122,-3.817107 5.038908,-9.004148 5.162364,-15.561138 l 0,-16.925782 z M 31.396413,18.00402 c 0.01585,-0.38255 0.153372,-0.675226 0.412566,-0.878027 0.259159,-0.202711 0.544781,-0.30497 0.856867,-0.306778 0.426652,0.0053 0.758115,0.1217 0.99439,0.349095 0.236236,0.227485 0.356127,0.534264 0.359673,0.920339 l 0,2.962011 c -0.0053,0.551892 -0.121675,0.97151 -0.349096,1.258855 -0.227461,0.287425 -0.53424,0.431999 -0.920338,0.433724 -0.426689,-0.0017 -0.758152,-0.146299 -0.994391,-0.433725 C 31.51981,22.022168 31.39992,21.60255 31.396413,21.05066 l 0,-3.04664 z"
     style="font-size:84.62999725000000200px;font-weight:bold;font-family:Poplar Std;-inkscape-font-specification:Poplar Std Bold;fill:#666666"
     id="path2984" /></g>
</svg>