<?xml version="1.0" encoding="UTF-8" standalone="no"?>
<!-- Created with Inkscape (http://www.inkscape.org/) -->

<svg
   xmlns:dc="http://purl.org/dc/elements/1.1/"
   xmlns:cc="http://creativecommons.org/ns#"
   xmlns:rdf="http://www.w3.org/1999/02/22-rdf-syntax-ns#"
   xmlns:svg="http://www.w3.org/2000/svg"
   xmlns="http://www.w3.org/2000/svg"
   xmlns:sodipodi="http://sodipodi.sourceforge.net/DTD/sodipodi-0.dtd"
   xmlns:inkscape="http://www.inkscape.org/namespaces/inkscape"
   id="svg2"
   xml:space="preserve"
   viewBox="0 0 67.704 61.238"
   version="1.1"
   inkscape:version="0.48.5 r10040"
   width="16"
   height="16"
   sodipodi:docname="num_8.svg"><defs
   id="defs33">
    
  
      
      
      
      
      
      
      
      
      
      
      
      
      
      
      
      
      
      
      
      
      
      
      
      
    </defs><sodipodi:namedview
   pagecolor="#ffffff"
   bordercolor="#666666"
   borderopacity="1"
   objecttolerance="10"
   gridtolerance="10"
   guidetolerance="10"
   inkscape:pageopacity="0"
   inkscape:pageshadow="2"
   inkscape:window-width="1920"
   inkscape:window-height="1057"
   id="namedview31"
   showgrid="false"
   inkscape:zoom="14.113845"
   inkscape:cx="10.633183"
   inkscape:cy="15.764836"
   inkscape:window-x="-8"
   inkscape:window-y="-8"
   inkscape:window-maximized="1"
   inkscape:current-layer="svg2" />
  
<metadata
   id="metadata29"><rdf:RDF><cc:Work><dc:format>image/svg+xml</dc:format><dc:type
         rdf:resource="http://purl.org/dc/dcmitype/StillImage" /><cc:license
         rdf:resource="http://creativecommons.org/licenses/publicdomain/" /><dc:publisher><cc:Agent
           rdf:about="http://openclipart.org/"><dc:title>Openclipart</dc:title></cc:Agent></dc:publisher><dc:title /></cc:Work><cc:License
       rdf:about="http://creativecommons.org/licenses/publicdomain/"><cc:permits
         rdf:resource="http://creativecommons.org/ns#Reproduction" /><cc:permits
         rdf:resource="http://creativecommons.org/ns#Distribution" /><cc:permits
         rdf:resource="http://creativecommons.org/ns#DerivativeWorks" /></cc:License></rdf:RDF></metadata><g
   style="font-size:33.85200119px;font-style:normal;font-variant:normal;font-weight:normal;font-stretch:normal;text-align:center;line-height:125%;letter-spacing:0px;word-spacing:0px;text-anchor:middle;fill:#999999;fill-opacity:1;stroke:none;font-family:Consolas;-inkscape-font-specification:Consolas"
   id="text2993"><path
     d="M 33.33693,-0.27582427 C 28.222156,-0.22286842 24.128237,1.2158216 21.055159,4.04025 c -3.073091,2.8245451 -4.649302,6.717471 -4.728639,11.678789 0.01763,3.575613 0.57477,6.452993 1.671422,8.632149 1.096645,2.179231 2.627016,3.787179 4.591117,4.823848 0.416082,0.206314 0.70523,0.364993 0.867445,0.476035 0.162197,0.111108 0.239773,0.206317 0.232731,0.285625 0.0088,0.04058 -0.0723,0.128737 -0.243308,0.264464 -0.171029,0.135793 -0.484862,0.329734 -0.941497,0.581825 -1.877712,0.978552 -3.475081,2.512449 -4.792114,4.601696 -1.317039,2.089301 -2.004647,4.956103 -2.062828,8.600413 0.112838,5.94872 1.812467,10.490467 5.098892,13.625255 3.286413,3.134797 7.482592,4.714535 12.58855,4.739218 5.112972,-0.02468 9.337361,-1.60442 12.673179,-4.739218 3.335755,-3.13479 5.063593,-7.676537 5.183521,-13.625255 -0.10935,-3.64431 -0.969743,-6.574584 -2.581183,-8.790828 -1.611509,-2.21619 -3.31819,-3.686616 -5.120048,-4.411281 -0.34207,-0.128676 -0.610062,-0.252094 -0.803976,-0.370254 -0.19397,-0.118095 -0.292703,-0.220354 -0.2962,-0.306777 0.01408,-0.18333 0.324384,-0.409007 0.930918,-0.677032 1.740151,-0.782784 3.33752,-2.306103 4.79211,-4.569961 1.454524,-2.263783 2.226762,-5.141163 2.316718,-8.632148 C 50.349067,11.096236 48.75875,7.0763667 45.661014,4.1671921 42.563216,1.2581339 38.455192,-0.2228701 33.33693,-0.27582427 z M 34.775622,43.138805 c -0.01412,0.514845 -0.155173,0.923883 -0.423145,1.227118 -0.268012,0.303271 -0.578318,0.458424 -0.930918,0.465461 -0.39319,-0.007 -0.728179,-0.162188 -1.004969,-0.465461 -0.276826,-0.303236 -0.4214,-0.712275 -0.433722,-1.227118 l 0,-5.670136 c 0.01409,-0.511274 0.155136,-0.906209 0.423144,-1.184805 0.267973,-0.278544 0.578278,-0.419592 0.930918,-0.423145 0.356126,0.0088 0.680537,0.160469 0.973231,0.45488 0.292655,0.294463 0.447809,0.678819 0.465461,1.15307 l 0,5.670136 z m 0,-20.480195 c -0.01236,0.338555 -0.156937,0.592441 -0.433726,0.76166 -0.276827,0.169296 -0.611816,0.253925 -1.004966,0.253887 -0.426689,3.8e-5 -0.758152,-0.08459 -0.994391,-0.253887 -0.236274,-0.169219 -0.356165,-0.423105 -0.359671,-0.76166 l 0,-5.246993 c 0.01409,-0.511254 0.155136,-0.906188 0.423144,-1.184804 0.267973,-0.278524 0.578278,-0.419572 0.930918,-0.423145 0.356126,0.0089 0.680537,0.160489 0.973231,0.45488 0.292655,0.294483 0.447809,0.678839 0.465461,1.153069 l 0,5.246993 z"
     style="font-size:84.62999725px;font-weight:bold;fill:#999999;font-family:Poplar Std;-inkscape-font-specification:Poplar Std Bold"
     id="path2984"
     inkscape:connector-curvature="0" /></g>
</svg>