<?xml version="1.0" encoding="UTF-8" standalone="no"?>
<!-- Created with Inkscape (http://www.inkscape.org/) -->

<svg
   xmlns:dc="http://purl.org/dc/elements/1.1/"
   xmlns:cc="http://creativecommons.org/ns#"
   xmlns:rdf="http://www.w3.org/1999/02/22-rdf-syntax-ns#"
   xmlns:svg="http://www.w3.org/2000/svg"
   xmlns="http://www.w3.org/2000/svg"
   xmlns:sodipodi="http://sodipodi.sourceforge.net/DTD/sodipodi-0.dtd"
   xmlns:inkscape="http://www.inkscape.org/namespaces/inkscape"
   id="svg2"
   xml:space="preserve"
   viewBox="0 0 67.704 61.238"
   version="1.1"
   inkscape:version="0.48.5 r10040"
   width="16"
   height="16"
   sodipodi:docname="num_9.svg"><defs
   id="defs33">
    
  
      
      
      
      
      
      
      
      
      
      
      
      
      
      
      
      
      
      
      
      
      
      
      
      
    </defs><sodipodi:namedview
   pagecolor="#ffffff"
   bordercolor="#666666"
   borderopacity="1"
   objecttolerance="10"
   gridtolerance="10"
   guidetolerance="10"
   inkscape:pageopacity="0"
   inkscape:pageshadow="2"
   inkscape:window-width="1920"
   inkscape:window-height="1057"
   id="namedview31"
   showgrid="false"
   inkscape:zoom="14.113845"
   inkscape:cx="10.633183"
   inkscape:cy="20.887698"
   inkscape:window-x="-8"
   inkscape:window-y="-8"
   inkscape:window-maximized="1"
   inkscape:current-layer="text2983" />
  
<metadata
   id="metadata29"><rdf:RDF><cc:Work><dc:format>image/svg+xml</dc:format><dc:type
         rdf:resource="http://purl.org/dc/dcmitype/StillImage" /><cc:license
         rdf:resource="http://creativecommons.org/licenses/publicdomain/" /><dc:publisher><cc:Agent
           rdf:about="http://openclipart.org/"><dc:title>Openclipart</dc:title></cc:Agent></dc:publisher><dc:title /></cc:Work><cc:License
       rdf:about="http://creativecommons.org/licenses/publicdomain/"><cc:permits
         rdf:resource="http://creativecommons.org/ns#Reproduction" /><cc:permits
         rdf:resource="http://creativecommons.org/ns#Distribution" /><cc:permits
         rdf:resource="http://creativecommons.org/ns#DerivativeWorks" /></cc:License></rdf:RDF></metadata>
<g
   style="font-size:67.70400238px;font-style:normal;font-variant:normal;font-weight:normal;font-stretch:normal;line-height:125%;letter-spacing:0px;word-spacing:0px;fill:#999999;fill-opacity:1;stroke:none;font-family:Consolas;-inkscape-font-specification:Consolas"
   id="text2983"><path
     d="m 54.329733,27.687117 c -4.6e-5,5.788036 -0.69703,10.765416 -2.090956,14.932154 -1.394013,4.166774 -3.454663,7.59109 -6.181958,10.272958 -2.727368,2.681884 -6.106229,4.659199 -10.136591,5.931952 -4.030417,1.272756 -8.682032,1.909134 -13.954859,1.909134 l -4.954657,0 0,-6.909247 5.500123,0 c 3.909162,7e-6 7.288022,-0.393941 10.136592,-1.181845 2.848522,-0.787887 5.219785,-1.947003 7.113796,-3.47735 1.893949,-1.530325 3.34095,-3.394001 4.341007,-5.591035 0.999986,-2.197 1.621212,-4.70463 1.863678,-7.522897 l 0.181823,-1.863678 c -1.90917,1.121263 -4.106187,2.022797 -6.591058,2.704606 -2.484932,0.681857 -5.18196,1.022773 -8.091091,1.022751 -3.000087,2.2e-5 -5.636507,-0.439381 -7.909269,-1.318212 -2.27279,-0.878782 -4.159195,-2.106082 -5.659218,-3.681901 -1.500041,-1.575763 -2.628853,-3.447016 -3.386439,-5.613762 -0.757598,-2.16668 -1.136394,-4.522791 -1.13639,-7.068341 -4e-6,-2.757595 0.500007,-5.333408 1.500034,-7.727447 1.000016,-2.393942 2.401561,-4.4773203 4.20464,-6.2501402 1.803059,-1.7727109 3.962196,-3.1742561 6.477418,-4.20464 2.515189,-1.0302665 5.287976,-1.54542905 8.318369,-1.54548927 2.939432,6.022e-5 5.659188,0.48491913 8.159275,1.45457817 2.50002,0.9697766 4.659157,2.5379921 6.477418,4.7046512 1.818181,2.1667673 3.242454,4.9774341 4.272823,8.4320081 1.030282,3.454665 1.545444,7.651725 1.54549,12.591192 z M 33.511083,7.0048337 c -1.697031,5.37e-5 -3.265247,0.2803628 -4.704651,0.840928 -1.439445,0.560671 -2.681896,1.3788704 -3.727357,2.4546003 -1.045493,1.075831 -1.871269,2.401618 -2.477328,3.977362 -0.606088,1.575838 -0.909125,3.378907 -0.909112,5.409213 -1.3e-5,1.848566 0.219689,3.500116 0.659106,4.954657 0.43939,1.454613 1.121223,2.689488 2.0455,3.704629 0.924247,1.015205 2.113667,1.795525 3.568263,2.340961 1.454557,0.545497 3.181867,0.81823 5.181934,0.818201 1.121212,2.9e-5 2.280328,-0.106034 3.477351,-0.318189 1.196968,-0.212097 2.36366,-0.499982 3.500079,-0.863656 1.136357,-0.363614 2.219713,-0.787865 3.250073,-1.272756 1.030291,-0.484827 1.954553,-0.99999 2.77279,-1.545489 -3.8e-5,-3.909142 -0.287923,-7.174364 -0.863656,-9.795675 C 44.708268,15.088394 43.874917,12.982289 42.784019,11.391296 41.693052,9.800402 40.367266,8.6715899 38.806656,8.0048562 37.245987,7.3382279 35.480797,7.0048874 33.511083,7.0048337 z"
     style="font-size:93.09300232px;fill:#999999"
     id="path3780" /></g></svg>